<?xml version="1.0" standalone="no"?>
<!DOCTYPE svg PUBLIC "-//W3C//DTD SVG 20010904//EN"
 "http://www.w3.org/TR/2001/REC-SVG-20010904/DTD/svg10.dtd">
<svg version="1.0" xmlns="http://www.w3.org/2000/svg"
 width="512.000000pt" height="512.000000pt" viewBox="0 0 512.000000 512.000000"
 preserveAspectRatio="xMidYMid meet">
<metadata>
Created by potrace 1.14, written by Peter Selinger 2001-2017
</metadata>
<g transform="translate(0.000000,512.000000) scale(0.100000,-0.100000)"
fill="#000000" stroke="none">
<path d="M2344 3766 c-36 -17 -52 -57 -59 -146 -3 -47 -8 -104 -10 -127 -3
-24 -7 -64 -10 -90 -5 -42 -17 -117 -29 -178 -19 -95 -61 -186 -94 -203 -9 -5
-35 -12 -57 -16 -120 -19 -283 -54 -305 -66 -11 -6 -20 -19 -20 -30 0 -14 -11
-22 -37 -29 -50 -14 -62 -14 -79 4 -27 27 -63 19 -78 -17 -11 -24 -24 -34 -57
-44 -24 -7 -46 -10 -49 -6 -22 30 -37 31 -106 8 -38 -13 -100 -38 -139 -54
-70 -30 -70 -30 -100 -12 -154 95 -580 256 -727 275 -68 9 -115 -46 -103 -121
6 -44 34 -136 56 -184 7 -14 17 -36 22 -50 26 -58 104 -190 152 -255 l51 -70
-38 -60 c-103 -161 -258 -533 -258 -617 0 -31 27 -73 55 -86 41 -19 74 -14
157 22 66 29 222 118 238 135 3 3 21 17 40 30 40 28 198 155 250 201 36 32 37
32 120 15 14 -3 36 -7 50 -10 14 -3 34 -7 46 -9 12 -2 45 -7 75 -11 30 -3 61
-8 69 -10 8 -2 42 -6 75 -10 33 -3 110 -12 170 -20 61 -8 162 -19 225 -25 63
-7 117 -14 119 -16 2 -2 -21 -90 -52 -195 -58 -205 -60 -224 -18 -279 23 -31
72 -60 108 -64 80 -9 385 133 510 237 69 57 139 127 179 179 l44 56 92 -5 c51
-2 95 -6 97 -9 2 -2 10 -47 18 -101 18 -123 50 -249 74 -289 28 -47 64 -66
121 -66 62 1 114 30 205 115 103 97 154 175 221 340 9 21 18 27 44 28 79 2
287 44 428 86 392 117 654 362 745 695 87 317 93 409 27 470 -25 24 -85 46
-122 46 -8 0 -103 3 -210 7 -366 15 -1041 9 -1347 -11 l-78 -5 -25 48 c-107
204 -269 387 -467 525 -101 71 -166 94 -209 74z"/>
</g>
</svg>
